<svg xmlns="http://www.w3.org/2000/svg" version="1.1" xmlns:xlink="http://www.w3.org/1999/xlink" xmlns:svgjs="http://svgjs.dev/svgjs" width="1500" height="1500" viewBox="0 0 1500 1500"><rect width="1500" height="1500" fill="#000000"></rect><g transform="matrix(0.6666666666666666,0,0,0.6666666666666666,248.92028430891526,361.4172043010753)"><svg viewBox="0 0 320 248" data-background-color="#293040" preserveAspectRatio="xMidYMid meet" height="1162" width="1500" xmlns="http://www.w3.org/2000/svg" xmlns:xlink="http://www.w3.org/1999/xlink"><g id="tight-bounds" transform="matrix(1,0,0,1,0.3455090211471088,0.4000000000000057)"><svg viewBox="0 0 319.3089819577058 247.2" height="247.2" width="319.3089819577058"><g><svg viewBox="0 0 395.5199999999999 306.2004187935762" height="247.2" width="319.3089819577058"><g transform="matrix(1,0,0,1,0,227.42329482663408)"><svg viewBox="0 0 395.5199999999999 78.77712396694214" height="78.77712396694214" width="395.5199999999999"><g id="textblocktransform"><svg viewBox="0 0 395.5199999999999 78.77712396694214" height="78.77712396694214" width="395.5199999999999" id="textblock"><g><svg viewBox="0 0 395.5199999999999 78.77712396694214" height="78.77712396694214" width="395.5199999999999"><g transform="matrix(1,0,0,1,0,0)"><svg width="395.5199999999999" viewBox="3.9 -35.5 181.48 36.15" height="78.77712396694214" data-palette-color="#d5b263"><path d="M3.9 0L3.9-35 20.6-35 20.6-32.4 6.7-32.4 6.7-20.65 16.25-20.65 15.3-17.9 6.7-17.9 6.7-2.5 20.5-2.5 20.5 0 3.9 0ZM27.15 0L27.15-35 29.95-35 29.95 0 27.15 0ZM39.55-32.15Q38.9-32.15 38.37-32.68 37.84-33.2 37.84-33.85L37.84-33.85Q37.84-34.5 38.34-35 38.84-35.5 39.55-35.5L39.55-35.5Q40.25-35.5 40.72-35.02 41.2-34.55 41.2-33.85L41.2-33.85Q41.2-33.15 40.7-32.65 40.2-32.15 39.55-32.15L39.55-32.15ZM38.09 0L38.09-25.05 40.9-25.05 40.9 0 38.09 0ZM52.69 0.65Q49.89-0.15 48.64-1.9 47.39-3.65 47.39-6.6L47.39-6.6 47.39-35 50.19-35 50.19-25.05 56.19-25.05 54.99-22.4 50.19-22.4 50.19-6.6Q50.19-2.6 53.49-1.5L53.49-1.5 52.69 0.65ZM75.84-1.75Q74.04-0.6 71.74 0 69.44 0.6 67.14 0.6L67.14 0.6Q63.44 0.6 61.27-1.23 59.09-3.05 59.09-6.7L59.09-6.7 59.09-16.95Q59.09-21 61.62-23.25 64.14-25.5 68.29-25.5L68.29-25.5Q72.44-25.5 74.77-23.28 77.09-21.05 77.09-17.1L77.09-17.1 77.09-10.6 61.89-9.75 61.89-6.7Q61.89-4.3 63.44-3.1 64.99-1.9 67.49-1.9L67.49-1.9Q70.99-1.9 74.74-3.9L74.74-3.9 75.84-1.75ZM74.29-17.45Q74.29-20.55 72.34-21.83 70.39-23.1 68.24-23.1L68.24-23.1Q65.49-23.1 63.69-21.6 61.89-20.1 61.89-16.9L61.89-16.9 61.89-12.5 74.29-13.1 74.29-17.45ZM97.54-1.75Q95.74-0.6 93.44 0 91.14 0.6 88.84 0.6L88.84 0.6Q85.14 0.6 82.96-1.23 80.79-3.05 80.79-6.7L80.79-6.7 80.79-16.95Q80.79-21 83.31-23.25 85.84-25.5 89.99-25.5L89.99-25.5Q94.14-25.5 96.46-23.28 98.79-21.05 98.79-17.1L98.79-17.1 98.79-10.6 83.59-9.75 83.59-6.7Q83.59-4.3 85.14-3.1 86.69-1.9 89.19-1.9L89.19-1.9Q92.69-1.9 96.44-3.9L96.44-3.9 97.54-1.75ZM95.99-17.45Q95.99-20.55 94.04-21.83 92.09-23.1 89.94-23.1L89.94-23.1Q87.19-23.1 85.39-21.6 83.59-20.1 83.59-16.9L83.59-16.9 83.59-12.5 95.99-13.1 95.99-17.45ZM128.64 0L128.64-26.75 119.54 0 116.49 0 107.44-26.75 107.44 0 104.64 0 104.64-35 107.44-35 117.99-4.3 128.64-35 131.44-35 131.44 0 128.64 0ZM156.53 0Q151.13 0.55 148.73 0.55L148.73 0.55Q143.48 0.55 140.38-1.4 137.28-3.35 137.28-8.45L137.28-8.45 137.28-12.6Q137.28-17.55 140.73-19.25L140.73-19.25Q142.38-20.1 144.93-20.1L144.93-20.1Q147.28-20.1 149.68-19.33 152.08-18.55 153.73-17.3L153.73-17.3Q153.73-20.05 152.13-21.68 150.53-23.3 145.98-23.3L145.98-23.3 146.13-25.45Q150.93-25.45 153.21-23.93 155.48-22.4 156.01-20.3 156.53-18.2 156.53-14.9L156.53-14.9 156.53 0ZM153.73-15.15Q151.68-16.1 149.36-16.8 147.03-17.5 145.08-17.5L145.08-17.5Q140.03-17.5 140.03-12.45L140.03-12.45 140.03-8.1Q140.03-4.85 142.28-3.38 144.53-1.9 148.68-1.9L148.68-1.9Q150.83-1.9 153.73-2.3L153.73-2.3 153.73-15.15ZM161.38 0L161.38-25.05 164.18-25.05 164.03-23.3Q166.38-25.5 170.18-25.5L170.18-25.5Q171.53-25.5 173.88-25.05L173.88-25.05 173.13-22.5Q171.53-23 169.78-23L169.78-23Q167.48-23 165.83-22.15 164.18-21.3 164.18-19.6L164.18-19.6 164.18 0 161.38 0ZM181.88 0.65Q179.08-0.15 177.83-1.9 176.58-3.65 176.58-6.6L176.58-6.6 176.58-35 179.38-35 179.38-25.05 185.38-25.05 184.18-22.4 179.38-22.4 179.38-6.6Q179.38-2.6 182.68-1.5L182.68-1.5 181.88 0.65Z" opacity="1" transform="matrix(1,0,0,1,0,0)" fill="#ffffff" class="wordmark-text-0" data-fill-palette-color="primary" id="text-0"></path></svg></g></svg></g></svg></g></svg></g><g transform="matrix(1,0,0,1,102.64574090430276,0)"><svg viewBox="0 0 190.22851819139441 190.22851819139441" height="190.22851819139441" width="190.22851819139441"><g><svg></svg></g><g id="icon-0"><svg viewBox="0 0 190.22851819139441 190.22851819139441" height="190.22851819139441" width="190.22851819139441"><g><path d="M0 95.114c0-52.53 42.584-95.114 95.114-95.114 52.53 0 95.114 42.584 95.115 95.114 0 52.53-42.584 95.114-95.115 95.115-52.53 0-95.114-42.584-95.114-95.115zM95.114 183.124c48.607 0 88.01-39.403 88.01-88.01 0-48.607-39.403-88.01-88.01-88.01-48.607 0-88.01 39.403-88.01 88.01 0 48.607 39.403 88.01 88.01 88.01z" data-fill-palette-color="accent" fill="#ffffff" stroke="transparent"></path><ellipse rx="94.16311650474023" ry="94.16311650474023" cx="95.11425909569721" cy="95.11425909569721" fill="#ffffff" stroke="transparent" stroke-width="0" fill-opacity="1" data-fill-palette-color="accent"></ellipse></g><g transform="matrix(1,0,0,1,41.45967781213678,41.523704758775885)"><svg viewBox="0 0 107.30916256712085 107.18110867384264" height="107.18110867384264" width="107.30916256712085"><g><svg xmlns="http://www.w3.org/2000/svg" xmlns:xlink="http://www.w3.org/1999/xlink" version="1.1" x="0" y="0" viewBox="8.3 7.4 83.8 83.69999999999999" style="enable-background:new 0 0 100 100;" xml:space="preserve" height="107.18110867384264" width="107.30916256712085" class="icon-dxe-0" data-fill-palette-color="quaternary" id="dxe-0"><g fill="#293040" data-fill-palette-color="quaternary"><path d="M50.2 7.4C27 7.4 8.3 26.1 8.3 49.3S27 91.1 50.2 91.1 92.1 72.4 92.1 49.2 73.2 7.4 50.2 7.4M50.2 83.8C31.1 83.8 15.5 68.2 15.5 49.1S31.1 14.4 50.2 14.4 84.9 30 84.9 49.1C84.7 68.3 69.2 83.8 50.2 83.8" fill="#000000" data-fill-palette-color="quaternary"></path><polygon points="29.3,28.3 29.3,34.3 35.2,28.3  " fill="#000000" data-fill-palette-color="quaternary"></polygon><path d="M66 56.2L41.2 31.3H38.2V32.8L64.2 58.8C65 57.8 65.6 56.8 66 56.2" fill="#000000" data-fill-palette-color="quaternary"></path><path d="M68 58.1L67 57.1C66.1 58.6 64.6 60.7 63.1 62.2S59.5 65.2 58 66.1L59 67.1C60.2 66.4 62.3 65 64.1 63.2S67.2 59.3 68 58.1" fill="#000000" data-fill-palette-color="quaternary"></path><path d="M65 64.1C63.5 65.6 61.4 67.1 59.9 68L63.5 71.6S66.5 71.6 69.5 68.6 72.5 62.6 72.5 62.6L68.9 59C68 60.5 66.5 62.6 65 64.1" fill="#000000" data-fill-palette-color="quaternary"></path><path d="M33.6 37.2H32.1V40.2L56.9 65C57.6 64.7 58.7 64.1 59.6 63.2z" fill="#000000" data-fill-palette-color="quaternary"></path><path d="M62.2 61.2C62.6 60.8 63.2 60.2 63.5 59.6L38.4 34.5 36.2 35.2 35.5 37.4 60.6 62.5C61.1 62.1 61.6 61.7 62.2 61.2" fill="#000000" data-fill-palette-color="quaternary"></path><polygon points="60.7,43.3 56.2,38.8 53.2,40.3 59.2,46.3  " fill="#000000" data-fill-palette-color="quaternary"></polygon><polygon points="29.3,70.2 30.8,71.7 45.7,56.8 42.7,53.8  " fill="#000000" data-fill-palette-color="quaternary"></polygon><path d="M60.7 38.8C65.2 43.3 69.7 38.8 69.7 35.8S74.2 29.8 74.2 29.8 71.2 28.3 66.7 28.3 54.7 32.8 60.7 38.8M68.4 29.8S63.9 31.7 62.1 33.8C61.2 34.7 60.8 36.2 60.8 36.2S59.5 34.4 60.8 32.6C63.1 29.5 68.4 29.8 68.4 29.8" fill="#000000" data-fill-palette-color="quaternary"></path></g></svg></g></svg></g></svg></g></svg></g><g></g></svg></g><defs></defs></svg><rect width="319.3089819577058" height="247.2" fill="none" stroke="none" visibility="hidden"></rect></g></svg></g></svg>